<?xml version="1.0"?>
<svg xmlns="http://www.w3.org/2000/svg" xmlns:xlink="http://www.w3.org/1999/xlink" version="1.1" id="Capa_1" x="0px" y="0px" viewBox="0 0 480.045 480.045" style="enable-background:new 0 0 480.045 480.045;" xml:space="preserve" width="512px" height="512px" class=""><g><g>
	<g>
		<path d="M470.095,328.25c-5.636-5.209-13.005-8.141-20.679-8.227h-0.04c-8.127-0.026-15.926,3.204-21.656,8.968L384,372.711    l-81.776-81.776c-14.542-14.542-33.738-23.503-54.224-25.312v-97.6h40c44.161-0.053,79.947-35.839,80-80v-8h-56    c-25.223,0.025-48.951,11.966-64,32.208V64.023h16c30.913-0.035,55.965-25.087,56-56v-8h-32    c-23.491,0.047-44.461,14.737-52.528,36.8c-10.605-13.144-26.583-20.789-43.472-20.8h-32v8c0.035,30.913,25.087,55.965,56,56h16    v48.208c-15.049-20.242-38.777-32.183-64-32.208h-56v8c0.053,44.161,35.839,79.947,80,80h40v81.6    c-20.491,1.82-39.688,10.795-54.224,25.352l-29.088,29.048h-43.312c-8.127-0.026-15.926,3.204-21.656,8.968l-50.744,50.744    c-2.74,2.754-6.467,4.298-10.352,4.288H0v96h358.136c8.501-0.021,16.612-3.566,22.4-9.792l91.28-98.208    C483.428,359.46,482.658,339.862,470.095,328.25z M312,96.023h39.496c-4.072,31.978-31.26,55.956-63.496,56h-39.504    C252.568,120.042,279.761,96.062,312,96.023z M288,16.023h15.2c-3.827,18.611-20.199,31.976-39.2,32h-15.2    C252.627,29.411,268.999,16.047,288,16.023z M216,64.023c-19.001-0.024-35.373-13.389-39.2-32H192    c19.001,0.024,35.373,13.389,39.2,32H216z M192,168.023c-32.239-0.04-59.432-24.019-63.504-56H168    c32.236,0.044,59.424,24.022,63.496,56H192z M189.088,302.247c28.137-28.079,73.695-28.079,101.832,0l81.768,81.776l-27.72,27.72    c-2.751,2.732-6.467,4.27-10.344,4.28H161.376c-3.877-0.01-7.593-1.548-10.344-4.28l-1.376-1.376    c-0.694-0.696-1.315-1.46-1.856-2.28c-0.104-0.152-0.16-0.328-0.256-0.488c-0.417-0.658-0.781-1.348-1.088-2.064    c-0.048-0.12-0.064-0.256-0.112-0.376c-0.294-0.758-0.524-1.54-0.688-2.336c0-0.192,0-0.392-0.056-0.592    c-0.225-1.474-0.225-2.974,0-4.448c0-0.184,0-0.384,0.056-0.568c0.166-0.799,0.399-1.583,0.696-2.344    c0.048-0.12,0.064-0.256,0.112-0.376c0.308-0.724,0.675-1.423,1.096-2.088c0.088-0.152,0.152-0.312,0.248-0.464    c0.54-0.82,1.162-1.584,1.856-2.28l1.376-1.376c2.751-2.724,6.464-4.256,10.336-4.264h101.248    c8.127,0.026,15.926-3.204,21.656-8.968l1.376-1.376c11.944-11.967,11.944-31.345,0-43.312l-1.376-1.376    c-5.73-5.764-13.529-8.994-21.656-8.968h-91.312L189.088,302.247z M460.096,361.087v-0.008l-91.256,98.272    c-2.766,2.974-6.643,4.666-10.704,4.672H16v-64h6.624c8.13,0.021,15.931-3.211,21.664-8.976l50.744-50.744    c2.751-2.732,6.467-4.27,10.344-4.28h157.248c3.877,0.01,7.593,1.548,10.344,4.28l1.376,1.376c5.702,5.717,5.702,14.971,0,20.688    l-1.376,1.376c-2.751,2.732-6.467,4.27-10.344,4.28H161.376c-8.127-0.026-15.926,3.204-21.656,8.968l-1.376,1.376    c-11.944,11.967-11.944,31.345,0,43.312l1.376,1.376c5.73,5.764,13.529,8.994,21.656,8.968h173.248    c8.127,0.026,15.926-3.204,21.656-8.968l33.376-33.376l49.376-49.376c5.715-5.713,14.98-5.711,20.693,0.004    c2.863,2.865,4.411,6.788,4.275,10.836C464.007,354.833,462.612,358.387,460.096,361.087z" data-original="#000000" class="active-path" data-old_color="#000000" fill="#FFFFFF"/>
	</g>
</g></g> </svg>
