<svg width="22" height="13" viewBox="0 0 22 13" fill="none" xmlns="http://www.w3.org/2000/svg">
<path d="M21.1113 5.74097H0.88868C0.397891 5.74097 0 6.13881 0 6.62965C0 7.12048 0.397891 7.51833 0.88868 7.51833H21.1113C21.6022 7.51833 22 7.12048 22 6.62965C22 6.13886 21.6022 5.74097 21.1113 5.74097Z" fill="white"/>
<path d="M21.1113 0H0.88868C0.397891 0 0 0.397891 0 0.88868C0 1.37947 0.397891 1.77736 0.88868 1.77736H21.1113C21.6022 1.77736 22 1.37947 22 0.88868C22 0.397891 21.6022 0 21.1113 0Z" fill="white"/>
<path d="M21.1113 10.4817H0.88868C0.397891 10.4817 0 10.8795 0 11.3704C0 11.8612 0.397891 12.259 0.88868 12.259H21.1113C21.6022 12.259 22 11.8612 22 11.3704C22 10.8795 21.6022 10.4817 21.1113 10.4817Z" fill="white"/>
</svg>
