<svg height="406pt" viewBox="-34 0 406 406.49719" width="406pt" xmlns="http://www.w3.org/2000/svg">	<style>
		path{
			fill: #fff;
		}
	</style> <path d="m169.289062 73.410156c-45.839843-.007812-85.234374 32.523438-93.898437 77.535156-8.660156 45.015626 15.847656 89.84375 58.417969 106.847657v62.855469c-17.449219 17.417968-19.6875 44.921874-5.289063 64.9375 14.398438 20.015624 41.191407 26.628906 63.25 15.621093 22.0625-11.007812 32.886719-36.390625 25.554688-59.929687-.824219-2.636719-3.628907-4.109375-6.261719-3.285156-2.636719.824218-4.109375 3.628906-3.285156 6.265624 5.984375 19.105469-2.957032 39.707032-21 48.386719-18.042969 8.679688-39.71875 2.800781-50.910156-13.800781-11.191407-16.601562-8.503907-38.898438 6.308593-52.367188 1.039063-.949218 1.632813-2.289062 1.632813-3.695312v-125.707031c-.113282-9.175781 4.714844-17.707031 12.644531-22.332031 7.929687-4.621094 17.734375-4.621094 25.664063 0 7.933593 4.625 12.761718 13.15625 12.648437 22.332031v125.714843c0 2.761719 2.238281 5 5 5s5-2.238281 5-5v-125.714843c.132813-12.761719-6.597656-24.617188-17.628906-31.039063-11.035157-6.421875-24.667969-6.421875-35.699219 0s-17.765625 18.277344-17.628906 31.039063v49.90625c-35.722656-16.277344-55.792969-54.761719-48.699219-93.371094 7.097656-38.605469 39.542969-67.4375 78.714844-69.949219 39.175781-2.511718 75.035156 21.945313 87 59.332032 11.96875 37.382812-3.027344 78.117187-36.378907 98.820312-1.535156.933594-2.449218 2.621094-2.394531 4.417969.050781 1.796875 1.066407 3.425781 2.652344 4.265625 1.585937.84375 3.503906.769531 5.019531-.191406 36.296875-22.53125 53.25-66.398438 41.539063-107.480469-11.714844-41.082031-49.253907-69.414063-91.972657-69.414063zm0 0"/><path d="m169.289062 55.566406c2.761719 0 5-2.238281 5-5v-45.566406c0-2.761719-2.238281-5-5-5-2.761718 0-5 2.238281-5 5v45.566406c0 2.761719 2.238282 5 5 5zm0 0"/><path d="m253.0625 90.269531c1.324219 0 2.597656-.527343 3.535156-1.464843l32.222656-32.21875c1.953126-1.953126 1.953126-5.121094 0-7.074219-1.953124-1.953125-5.117187-1.953125-7.070312 0l-32.222656 32.21875c-1.429688 1.429687-1.855469 3.582031-1.082032 5.449219.773438 1.871093 2.597657 3.089843 4.621094 3.089843zm0 0"/><path d="m333.328125 164.039062h-45.566406c-2.761719 0-5 2.238282-5 5 0 2.761719 2.238281 5 5 5h45.566406c2.761719 0 5-2.238281 5-5 0-2.761718-2.238281-5-5-5zm0 0"/><path d="m256.597656 249.277344c-1.964844-1.894532-5.082031-1.867188-7.011718.0625-1.925782 1.929687-1.953126 5.046875-.058594 7.007812l32.226562 32.21875c1.253906 1.300782 3.113282 1.824219 4.859375 1.367188 1.75-.457032 3.117188-1.824219 3.574219-3.570313.457031-1.75-.0625-3.609375-1.363281-4.863281zm0 0"/><path d="m81.980469 249.277344-32.222657 32.21875c-1.300781 1.253906-1.820312 3.113281-1.363281 4.863281.457031 1.746094 1.824219 3.113281 3.570313 3.570313 1.75.457031 3.609375-.066407 4.863281-1.367188l32.222656-32.21875c1.894531-1.960938 1.867188-5.082031-.0625-7.007812-1.929687-1.929688-5.046875-1.957032-7.007812-.058594zm0 0"/><path d="m55.816406 169.039062c0-2.761718-2.238281-5-5-5h-45.566406c-2.761719 0-5 2.238282-5 5 0 2.761719 2.238281 5 5 5h45.566406c2.761719 0 5-2.238281 5-5zm0 0"/><path d="m81.980469 88.800781c1.257812 1.296875 3.113281 1.820313 4.863281 1.359375 1.746094-.457031 3.113281-1.820312 3.570312-3.570312.457032-1.746094-.066406-3.605469-1.367187-4.863282l-32.222656-32.21875c-1.953125-1.953124-5.117188-1.953124-7.070313 0-1.953125 1.953126-1.953125 5.121094 0 7.070313zm0 0"/><path d="m227.316406 174.039062c2.761719 0 5-2.238281 5-5 .015625-25.214843-15.007812-48.011718-38.1875-57.9375-2.539062-1.089843-5.484375.085938-6.574218 2.625-1.085938 2.542969.089843 5.484376 2.628906 6.574219 19.503906 8.355469 32.148437 27.535157 32.132812 48.753907.007813 2.757812 2.246094 4.984374 5 4.984374zm0 0"/><path d="m169.289062 106.015625c-2.761718 0-5 2.238281-5 5s2.238282 5 5 5c1.445313 0 2.875.058594 4.296876.171875h.398437c2.761719.109375 5.089844-2.039062 5.199219-4.800781.113281-2.761719-2.039063-5.089844-4.800782-5.199219-1.679687-.113281-3.375-.171875-5.09375-.171875zm0 0"/><path d="m174.289062 287.515625v-91.957031c0-2.761719-2.238281-5-5-5-2.761718 0-5 2.238281-5 5v146.5625c-6.914062 2.433594-11.066406 9.5-9.828124 16.722656 1.234374 7.226562 7.496093 12.507812 14.828124 12.507812 7.328126 0 13.59375-5.28125 14.828126-12.507812 1.234374-7.222656-2.914063-14.289062-9.828126-16.722656zm0 0"/></svg>