<svg width="179" height="144" viewBox="0 0 179 144" fill="none" xmlns="http://www.w3.org/2000/svg">
<g clip-path="url(#clip0)">
<path d="M141.058 122.517C141.959 122.688 142.855 122.984 143.547 123.214L143.615 123.237C144.348 123.481 144.897 123.663 145.406 123.778C145.844 123.876 146.077 123.88 146.178 123.872C146.18 123.871 146.181 123.869 146.182 123.868C146.166 123.84 146.147 123.807 146.123 123.77C145.945 123.493 145.633 123.133 145.146 122.679C144.664 122.23 144.116 121.785 143.505 121.292L143.491 121.28L143.477 121.269C142.598 120.541 141.724 119.691 140.969 118.957C140.653 118.649 140.357 118.361 140.091 118.112L137.393 115.582L140.425 113.464C140.799 113.203 141.118 112.967 141.468 112.71C141.719 112.525 141.985 112.329 142.298 112.104L143.336 111.357L144.594 111.588C147.217 112.072 150.458 112.755 153.103 114.017C155.719 115.264 158.608 117.521 158.756 121.457L158.756 121.461C158.861 124.353 160.088 126.521 162.102 128.61C162.397 128.916 162.699 129.211 163.008 129.5C162.96 128.289 163.29 127.013 164.209 125.8C165.43 124.187 167.475 123 170.043 122.002C170.574 121.793 170.731 121.584 170.779 121.509C170.836 121.42 170.916 121.239 170.91 120.864C170.896 120.011 170.432 118.741 169.563 117.505L169.561 117.503C168.055 115.355 167.02 112.766 167.792 110.084C168.558 107.423 170.806 105.715 173.333 104.596C174.408 104.117 175.098 103.714 175.526 103.413C175.407 103.326 175.271 103.232 175.115 103.132C174.354 102.643 173.369 102.148 172.25 101.63L172.24 101.626C169.514 100.353 167.51 98.7631 166.21 96.8127C164.892 94.8373 164.467 92.7451 164.473 90.7816C164.48 88.879 164.895 87.0337 165.294 85.4828C165.418 85.002 165.538 84.5587 165.649 84.1424C165.93 83.0993 166.165 82.2255 166.313 81.355C166.923 77.7598 169.352 75.0987 172.737 74.0789C173.949 73.7137 175.24 73.5681 176.577 73.6337C174.132 72.246 172.18 70.4983 170.475 68.9711C170.069 68.6082 169.678 68.2578 169.297 67.9276L169.294 67.9243C167.566 66.4211 165.805 64.9147 164.032 63.3979C157.462 57.777 150.725 52.0137 144.903 45.7415C138.463 38.8046 132.965 31.072 129.8 21.8615C125.072 25.2342 120.097 27.0042 114.969 27.1294C108.542 27.2863 102.278 24.85 96.3765 20.503C89.4256 15.3911 79.9851 12.4361 71.9422 14.7808L71.9399 14.7814C62.9452 17.3961 55.8632 16.994 47.8026 14.3183C46.3822 13.8477 44.9957 13.3657 43.6383 12.8938C38.4182 11.0792 33.6287 9.41415 29.0039 9.12619C26.2131 8.95242 23.6522 9.31018 21.2686 10.4218C18.8885 11.5319 16.4843 13.4873 14.1504 16.82L14.149 16.8221C13.8803 17.205 13.5686 17.5003 13.2673 17.7274C13.5382 17.844 13.8264 17.964 14.1322 18.0883C14.3976 18.1961 14.6789 18.308 14.9712 18.4244C16.4452 19.011 18.2016 19.71 19.6359 20.5666C21.3778 21.6069 23.4243 23.3251 23.7961 26.1907C24.1489 28.9096 22.8433 31.6579 20.6646 34.4315L20.6643 34.4318C15.3306 41.2198 14.6223 46.6543 16.5129 50.6705C18.5071 54.9068 23.9399 58.8504 33.7944 61.231L33.8008 61.2326C37.7479 62.1952 41.2472 63.4706 44.453 66.1794C48.1373 69.2904 50.6355 70.0772 52.5633 69.8632C54.5573 69.642 56.8883 68.2563 59.9926 64.7135C59.943 64.4879 59.8404 64.261 59.6185 63.7705C59.5409 63.5988 59.4486 63.3947 59.3388 63.1471L59.3285 63.1238C59.0186 62.4249 58.3306 60.8732 58.712 59.14C59.1561 57.1221 60.7271 55.9043 62.4034 55.1378L63.4929 54.6396L64.6258 55.0289C67.1325 55.8903 70.3311 57.0494 72.8326 58.6408C75.1984 60.1459 78.0909 62.8056 77.4665 66.8303L77.466 66.8338C77.1403 68.9166 77.3938 70.1707 77.769 70.9592C78.1365 71.7314 78.7751 72.3823 79.8469 72.9783C80.9619 73.5984 82.4098 74.0831 84.2088 74.5471C85.096 74.7759 86.0192 74.9879 86.9971 75.212L87.0424 75.2224C87.9931 75.4402 88.9941 75.6696 89.9876 75.9238L89.9935 75.9253C103.456 79.3979 115.622 84.9014 126.328 92.3759C129.477 94.5729 132.062 97.27 133.317 100.579C134.615 104.001 134.34 107.68 132.489 111.415M141.058 122.517C141.058 122.517 141.059 122.517 141.06 122.517L140.498 125.464L141.058 122.517ZM141.058 122.517C137.496 121.838 134.91 121.229 133.067 120.566C131.173 119.885 130.514 119.301 130.285 118.974C130.159 118.794 129.941 118.399 130.201 117.155C130.478 115.832 131.204 114.017 132.489 111.415M132.489 111.415C132.489 111.415 132.489 111.415 132.489 111.414L129.8 110.085L132.488 111.417C132.488 111.417 132.489 111.416 132.489 111.415ZM74.502 66.3704C73.1351 75.1132 79.5469 76.5825 86.3565 78.143C87.318 78.3633 88.2875 78.5855 89.2441 78.8302C102.384 82.2196 114.219 87.58 124.612 94.8362L74.502 66.3704ZM74.502 66.3704C75.1632 62.108 68.7119 59.6052 63.6509 57.8661C60.8128 59.1639 61.5107 60.6887 62.2665 62.34C62.8969 63.7173 63.5675 65.1825 62.2606 66.6773M74.502 66.3704L60.0227 64.7207M62.2606 66.6773L60.0232 64.7184C60.0289 64.6927 60.0282 64.6735 60.0035 64.7011C60.003 64.7016 60.0026 64.7022 60.0021 64.7027L60.0227 64.7207M62.2606 66.6773C55.7585 74.104 50.3669 75.0997 42.5168 68.4709L60.0227 64.7207M62.2606 66.6773L60.0227 64.7207M148.45 125.832C150.654 123.234 147.789 120.895 145.39 118.958C145.029 118.659 144.684 118.351 144.346 118.038C144.181 118.157 144.018 118.273 143.861 118.382L142.143 115.923L143.786 114.171L144.195 113.734C144.196 113.735 144.197 113.736 144.198 113.737C144.598 114.112 144.949 114.453 145.277 114.773C150.236 115.762 155.601 117.402 155.758 121.57C155.994 128.067 160.655 131.67 165.436 135.366C165.866 135.698 166.297 136.031 166.726 136.367L146.239 123.916C146.239 123.927 146.24 123.937 146.24 123.946L148.45 125.832ZM148.45 125.832L146.241 123.958M169.271 81.8582C170.101 76.9547 175.68 74.827 182.207 78.4073L173.509 98.9077C165.759 95.2868 167.205 89.9103 168.513 85.0499C168.809 83.9509 169.097 82.8782 169.271 81.8582ZM171.136 124.796C175.239 123.186 174.137 118.794 172.017 115.78L168.858 134.226C168.691 134.016 168.52 133.806 168.35 133.597C165.937 130.629 163.58 127.731 171.136 124.796Z" stroke="white" stroke-width="6"/>
</g>
<defs>
<clipPath id="clip0">
</clipPath>
</defs>
</svg>
