<svg width="200" height="200" viewBox="0 0 171 134" fill="none" xmlns="http://www.w3.org/2000/svg">
<path d="M133.058 116.517C133.959 116.688 134.855 116.984 135.547 117.214L135.615 117.237C136.348 117.481 136.897 117.663 137.406 117.778C137.844 117.876 138.077 117.88 138.178 117.872C138.18 117.871 138.181 117.869 138.182 117.868C138.166 117.84 138.147 117.807 138.123 117.77C137.945 117.493 137.633 117.133 137.146 116.679C136.664 116.23 136.116 115.785 135.505 115.292L135.491 115.28L135.477 115.269C134.598 114.541 133.724 113.691 132.969 112.957C132.653 112.649 132.357 112.361 132.091 112.112L129.393 109.582L132.425 107.464C132.799 107.203 133.118 106.967 133.468 106.71C133.719 106.525 133.985 106.329 134.298 106.104L135.336 105.357L136.594 105.588C139.217 106.072 142.458 106.755 145.103 108.017C147.719 109.264 150.608 111.521 150.756 115.457L150.756 115.461C150.861 118.353 152.088 120.521 154.102 122.61C154.397 122.916 154.699 123.211 155.008 123.5C154.96 122.289 155.29 121.013 156.209 119.8C157.43 118.187 159.475 117 162.043 116.002C162.574 115.793 162.731 115.584 162.779 115.509C162.836 115.42 162.916 115.239 162.91 114.864C162.896 114.011 162.432 112.741 161.563 111.505L161.561 111.503C160.055 109.355 159.02 106.766 159.792 104.084C160.558 101.423 162.806 99.7154 165.333 98.596C166.408 98.1165 167.098 97.7136 167.526 97.4132C167.407 97.3259 167.271 97.2321 167.115 97.1324C166.354 96.6428 165.369 96.1482 164.25 95.6303L164.24 95.6257C161.514 94.3525 159.51 92.7631 158.21 90.8127C156.892 88.8373 156.467 86.7451 156.473 84.7816C156.48 82.879 156.895 81.0337 157.294 79.4828C157.418 79.002 157.538 78.5587 157.649 78.1424C157.93 77.0993 158.165 76.2255 158.313 75.355C158.923 71.7598 161.352 69.0987 164.737 68.0789C165.949 67.7137 167.24 67.5681 168.577 67.6337C166.132 66.246 164.18 64.4983 162.475 62.9711C162.069 62.6082 161.678 62.2578 161.297 61.9276L161.294 61.9243C159.566 60.4211 157.805 58.9147 156.032 57.3979C149.462 51.777 142.725 46.0137 136.903 39.7415C130.463 32.8046 124.965 25.072 121.8 15.8615C117.072 19.2342 112.097 21.0042 106.969 21.1294C100.542 21.2863 94.2784 18.85 88.3765 14.503C81.4256 9.39108 71.9851 6.43605 63.9422 8.78079L63.9399 8.78144C54.9452 11.3961 47.8632 10.994 39.8026 8.31827C38.3822 7.84773 36.9957 7.36572 35.6383 6.89384C30.4182 5.07916 25.6287 3.41415 21.0039 3.12619C18.2131 2.95242 15.6522 3.31018 13.2686 4.42183C10.8885 5.5319 8.48428 7.48732 6.15039 10.82L6.14897 10.8221C5.88033 11.205 5.56864 11.5003 5.26726 11.7274C5.53822 11.844 5.82635 11.964 6.13222 12.0883C6.39763 12.1961 6.67887 12.308 6.97121 12.4244C8.44521 13.011 10.2016 13.71 11.6359 14.5666C13.3778 15.6069 15.4243 17.3251 15.7961 20.1907C16.1489 22.9096 14.8433 25.6579 12.6646 28.4315L12.6643 28.4318C7.33057 35.2198 6.62228 40.6543 8.51289 44.6705C10.5071 48.9068 15.9399 52.8504 25.7944 55.231L25.8008 55.2326C29.7479 56.1952 33.2472 57.4706 36.453 60.1794C40.1373 63.2904 42.6355 64.0772 44.5633 63.8632C46.5573 63.642 48.8883 62.2563 51.9926 58.7135C51.943 58.4879 51.8404 58.261 51.6185 57.7705C51.5409 57.5988 51.4486 57.3947 51.3388 57.1471L51.3285 57.1238C51.0186 56.4249 50.3306 54.8732 50.712 53.14C51.1561 51.1221 52.7271 49.9043 54.4034 49.1378L55.4929 48.6396L56.6258 49.0289C59.1325 49.8903 62.3311 51.0494 64.8326 52.6408C67.1984 54.1459 70.0909 56.8056 69.4665 60.8303L69.466 60.8338C69.1403 62.9166 69.3938 64.1707 69.769 64.9592C70.1365 65.7314 70.7751 66.3823 71.8469 66.9783C72.9619 67.5984 74.4098 68.0831 76.2088 68.5471C77.096 68.7759 78.0192 68.9879 78.9971 69.212L79.0424 69.2224C79.9931 69.4402 80.9941 69.6696 81.9876 69.9238L81.9935 69.9253C95.4561 73.3979 107.622 78.9014 118.328 86.3759C121.477 88.5729 124.062 91.27 125.317 94.5785C126.615 98.0009 126.34 101.68 124.489 105.415M133.058 116.517C133.058 116.517 133.059 116.517 133.06 116.517L132.498 119.464L133.058 116.517ZM133.058 116.517C129.496 115.838 126.91 115.229 125.067 114.566C123.173 113.885 122.514 113.301 122.285 112.974C122.159 112.794 121.941 112.399 122.201 111.155C122.478 109.832 123.204 108.017 124.489 105.415M124.489 105.415C124.489 105.415 124.489 105.415 124.489 105.414L121.8 104.085L124.488 105.417C124.488 105.417 124.489 105.416 124.489 105.415ZM66.502 60.3704C65.1351 69.1132 71.5469 70.5825 78.3565 72.143C79.318 72.3633 80.2875 72.5855 81.2441 72.8302C94.3841 76.2196 106.219 81.58 116.612 88.8362L66.502 60.3704ZM66.502 60.3704C67.1632 56.108 60.7119 53.6052 55.6509 51.8661C52.8128 53.1639 53.5107 54.6887 54.2665 56.34C54.8969 57.7173 55.5675 59.1825 54.2606 60.6773M66.502 60.3704L52.0227 58.7207M54.2606 60.6773L52.0232 58.7184C52.0289 58.6927 52.0282 58.6735 52.0035 58.7011C52.003 58.7016 52.0026 58.7022 52.0021 58.7027L52.0227 58.7207M54.2606 60.6773C47.7585 68.104 42.3669 69.0997 34.5168 62.4709L52.0227 58.7207M54.2606 60.6773L52.0227 58.7207M140.45 119.832C142.654 117.234 139.789 114.895 137.39 112.958C137.029 112.659 136.684 112.351 136.346 112.038C136.181 112.157 136.018 112.273 135.861 112.382L134.143 109.923L135.786 108.171L136.195 107.734C136.196 107.735 136.197 107.736 136.198 107.737C136.598 108.112 136.949 108.453 137.277 108.773C142.236 109.762 147.601 111.402 147.758 115.57C147.994 122.067 152.655 125.67 157.436 129.366C157.866 129.698 158.297 130.031 158.726 130.367L138.239 117.916C138.239 117.927 138.24 117.937 138.24 117.946L140.45 119.832ZM140.45 119.832L138.241 117.958M161.271 75.8582C162.101 70.9547 167.68 68.827 174.207 72.4073L165.509 92.9077C157.759 89.2868 159.205 83.9103 160.513 79.0499C160.809 77.9509 161.097 76.8782 161.271 75.8582ZM163.136 118.796C167.239 117.186 166.137 112.794 164.017 109.78L160.858 128.226C160.691 128.016 160.52 127.806 160.35 127.597C157.937 124.629 155.58 121.731 163.136 118.796Z" stroke="white" stroke-width="6"/>
</svg>
