<svg id="Layer_1" height="512" viewBox="0 0 128 128" width="512" xmlns="http://www.w3.org/2000/svg" data-name="Layer 1">	<style>
		path{
			fill: #fff;
		}
	</style> <path d="m115.6 75.005v-6.857a1.75 1.75 0 0 0 -2.415-1.619l-8.4 3.454-2.288-11.3 11.7-2.37a1.751 1.751 0 0 0 .884-2.959l-8.276-8.192 2.795-.562a1.75 1.75 0 0 0 .883-2.959l-6.76-6.692.787-.159a1.751 1.751 0 0 0 .884-2.959l-10.581-10.471a1.75 1.75 0 0 0 -2.836.547l-6.009 13.829a1.75 1.75 0 0 0 1.953 2.413l1-.2-3.821 8.804a1.751 1.751 0 0 0 1.953 2.413l3.052-.619-4.693 10.789a1.75 1.75 0 0 0 1.606 2.448 1.784 1.784 0 0 0 .347-.035l11.7-2.37 2.422 11.959-7.155 2.941a1.75 1.75 0 0 0 -1.066 1.873l1.341 9.148-8.569 5.638a1.75 1.75 0 0 0 -.693 2.029l.481 1.405-3.977-4.072 6-7.288a1.748 1.748 0 0 0 -.032-2.262l-12.75-14.63a1.754 1.754 0 0 0 -1.477-.593l-7.722.7-2.155-23.776a5.525 5.525 0 0 0 5.4-9.628l-25.785-16.223a5.549 5.549 0 0 0 -6.7.607l-22.441 20.6a5.54 5.54 0 0 0 3.735 9.621c.17 0 .342-.008.513-.023a5.461 5.461 0 0 0 2.792-1.085l2.156 23.765-9.395.853a1.749 1.749 0 0 0 -1.588 1.74v37.822a1.751 1.751 0 0 0 1.75 1.75h99.7a1.751 1.751 0 0 0 1.75-1.75v-35.494zm-25.64-17.353 4.688-10.789a1.75 1.75 0 0 0 -1.6-2.447 1.726 1.726 0 0 0 -.348.035l-3.051.618 3.827-8.807a1.75 1.75 0 0 0 -1.953-2.413l-1 .2 3.652-8.406 6.43 6.364-.787.159a1.75 1.75 0 0 0 -.884 2.959l6.76 6.692-2.789.564a1.75 1.75 0 0 0 -.883 2.959l8.276 8.193-8.498 1.721-.679-3.354a1.75 1.75 0 1 0 -3.43.694l.68 3.355zm14.065 16.428a1.753 1.753 0 0 0 .271-.112l7.8-3.208v3.02l-14.777 5.875-.389-2.655zm-85.9-30.163a2.039 2.039 0 0 1 -1.566-3.533l22.441-20.595a2.042 2.042 0 0 1 2.464-.224l25.781 16.22a2.04 2.04 0 1 1 -2.172 3.453l-23.333-14.68a1.751 1.751 0 0 0 -2.115.192l-20.311 18.639a2.013 2.013 0 0 1 -1.19.528zm6.357-.518 16.524-15.167 18.986 11.945 2.392 26.366-7.6.69-1.617-17.824a1.748 1.748 0 0 0 -1.9-1.585l-16.827 1.527a1.749 1.749 0 0 0 -1.584 1.9l1.617 17.825-7.6.69zm13.476 25.361-1.458-16.082 13.339-1.21 1.461 16.081zm35.061.332 2.342 2.688-59.461 5.876v-3.38zm-57.119 39.656v-6.364l6.477-2.405 10.623 2.072a1.749 1.749 0 0 0 1.837-.821l1.611-2.7 4.438 3.944a1.755 1.755 0 0 0 1.162.442 1.726 1.726 0 0 0 .409-.049l7.452-1.788a1.75 1.75 0 0 0 -.816-3.4l-6.565 1.575-4.254-3.78 2.887-4.838h2.094a1.75 1.75 0 1 0 0-3.5h-3.088a1.749 1.749 0 0 0 -1.5.853l-6.2 10.394-9.9-1.931a1.735 1.735 0 0 0 -.944.077l-5.723 2.121v-17.476l62.284-6.156 6.023 6.912-6.058 7.356a1.75 1.75 0 0 0 .1 2.335l10.5 10.75a1.75 1.75 0 0 0 2.907-1.79l-2.556-7.467 8.366-5.5a1.749 1.749 0 0 0 .769-1.714l-.392-2.681 14.257-5.672v31.2z"/></svg>