<svg height="512" viewBox="0 0 512 512" width="512" xmlns="http://www.w3.org/2000/svg"> 
	<style>
		path{
			fill: #fff;
		}
	</style> 
<path d="m128.1 202.793a127.685 127.685 0 0 0 42.4 100.4c13.664 12.27 21.5 29.055 21.5 46.059v26.748h16v-16h88v-16h-32v-40.4a88.091 88.091 0 0 0 80-87.6 8 8 0 0 0 -8-8 87.906 87.906 0 0 0 -72 37.562v-30.034a72.087 72.087 0 0 0 64-71.528 8 8 0 0 0 -8-8 72.026 72.026 0 0 0 -64 39.167 72.026 72.026 0 0 0 -64-39.167 8 8 0 0 0 -8 8 72.087 72.087 0 0 0 64 71.528v30.034a87.906 87.906 0 0 0 -72-37.562 8 8 0 0 0 -8 8 88.091 88.091 0 0 0 80 87.6v40.4h-40.191c-1.45-19.691-10.969-38.66-26.622-52.715a111.748 111.748 0 0 1 -37.1-87.859c2.289-57.516 49.109-104.649 106.59-107.3a111.959 111.959 0 0 1 79.448 195.774 76.912 76.912 0 0 0 -24.844 42.586l15.711 3.032a60.807 60.807 0 0 1 19.727-33.625 127.971 127.971 0 0 0 -90.774-223.75c-65.711 3.029-119.226 56.904-121.845 122.65zm199.4 21.707a72.131 72.131 0 0 1 -63 63 72.131 72.131 0 0 1 63-63zm-16.172-71.828a56.122 56.122 0 0 1 -46.656 46.656 56.122 56.122 0 0 1 46.656-46.656zm-110.656 0a56.122 56.122 0 0 1 46.656 46.656 56.122 56.122 0 0 1 -46.656-46.656zm-16.172 71.828a72.131 72.131 0 0 1 63 63 72.131 72.131 0 0 1 -63-63z"/><path d="m488 368h-80a8 8 0 0 0 -8 8v7.356l-3.531-2.825a93.683 93.683 0 0 0 -110.492-4.8l-53.977.269a32.008 32.008 0 0 0 -30.969 40.066l-58.191-27.527a32.927 32.927 0 0 0 -45.145 19.649 33.343 33.343 0 0 0 17.442 40.6l89.035 41.883a56.363 56.363 0 0 0 23.836 5.329h259.992a8 8 0 0 0 8-8v-112a8 8 0 0 0 -8-8zm-277.02 108.2-89.035-41.883a17.327 17.327 0 0 1 -9.062-21.1 17.061 17.061 0 0 1 16.129-11.758 16.651 16.651 0 0 1 7.027 1.57l76.535 36.207a7.978 7.978 0 0 0 3.426.764h64.77a8 8 0 1 0 0-16h-48.77a16 16 0 1 1 0-32h56a8.005 8.005 0 0 0 4.437-1.344l2.415-1.609a77.685 77.685 0 0 1 91.621 3.976l13.527 10.821v76.156h-171.992a40.248 40.248 0 0 1 -17.028-3.8zm269.02 3.8h-64v-96h64z"/><path d="m432 448h16v16h-16z"/><path d="m248 16h16v32h-16z"/><path d="m180.646 29.395h16v32.002h-16z" transform="matrix(.924 -.383 .383 .924 -3.008 75.674)"/><path d="m123.55 67.548h15.998v32.002h-15.998z" transform="matrix(.707 -.707 .707 .707 -20.548 117.49)"/><path d="m372.452 316.45h15.998v32.002h-15.998z" transform="matrix(.707 -.707 .707 .707 -123.647 366.392)"/><path d="m85.396 124.645h16v32.002h-16z" transform="matrix(.383 -.924 .924 .383 -72.29 173.087)"/><path d="m410.604 259.352h16v32.002h-16z" transform="matrix(.383 -.924 .924 .383 3.978 556.662)"/><path d="m64 200h32v16h-32z"/><path d="m416 200h32v16h-32z"/><path d="m77.395 267.354h32.002v16h-32.002z" transform="matrix(.924 -.383 .383 .924 -98.294 56.728)"/><path d="m402.602 132.646h32.002v16h-32.002z" transform="matrix(.924 -.383 .383 .924 -21.955 170.96)"/><path d="m115.548 324.452h32.002v15.998h-32.002z" transform="matrix(.707 -.707 .707 .707 -196.549 190.392)"/><path d="m364.45 75.55h32.002v15.998h-32.002z" transform="matrix(.707 -.707 .707 .707 52.354 293.49)"/><path d="m307.352 37.396h32.002v16h-32.002z" transform="matrix(.383 -.924 .924 .383 157.676 326.767)"/></svg>