<svg width="181" height="185" viewBox="0 0 181 185" fill="none" xmlns="http://www.w3.org/2000/svg">
<path d="M87.6096 37.564C86.1445 37.564 84.9583 38.7764 84.9583 40.2739V49.8025C84.9583 51.2987 86.1445 52.5125 87.6096 52.5125C89.0748 52.5125 90.261 51.2987 90.261 49.8025V40.2739C90.261 38.7764 89.0748 37.564 87.6096 37.564Z" fill="white"/>
<path d="M75.267 90.1711C74.5352 88.874 72.914 88.4294 71.6463 89.1788L62.6965 94.4604C61.4288 95.2085 60.9938 96.8655 61.7257 98.1612C62.2173 99.0307 63.108 99.5176 64.025 99.5176C64.4738 99.5176 64.9308 99.4005 65.3479 99.1535L74.2976 93.8719C75.5653 93.1238 76.0003 91.4668 75.267 90.1711Z" fill="white"/>
<path d="M111.269 85.406C110.537 86.7017 110.972 88.3587 112.24 89.1082C120.441 93.8083 120.395 94.236 121.637 94.236C124.344 94.236 125.307 90.5606 122.965 89.1788L114.891 84.4138C113.622 83.6657 112.001 84.1103 111.269 85.406Z" fill="white"/>
<path d="M153.72 106.945L115.38 70.6975C114.812 70.1612 114.045 69.9029 113.275 69.9946L102.629 71.2494C102.252 70.2063 101.754 69.2212 101.155 68.3136L99.5422 23.0939C99.4883 21.5992 98.2607 20.4277 96.7955 20.4842C95.3317 20.5392 94.1897 21.7954 94.2422 23.2915L95.677 63.502C93.926 62.6636 91.9126 62.2049 89.9379 62.2049C87.8071 62.2049 85.7095 62.7314 83.9267 63.6417L78.5329 56.2119L89.7929 5.41992H93.6056L93.9177 14.1694C93.9702 15.6641 95.195 16.83 96.6643 16.7792C98.1267 16.7241 99.2701 15.4679 99.2163 13.9718L98.9028 5.15457C98.7992 2.26395 96.5014 0 93.6719 0H89.739C87.2782 0 85.1792 1.71349 84.6338 4.16798L73.092 56.2289C72.9208 56.9995 73.0879 57.8083 73.5491 58.442L79.737 66.9657C78.1628 68.8147 77.0608 71.0941 76.6244 73.6065L28.6209 104.37C26.2222 105.906 25.4517 109.073 26.8685 111.577L28.8335 115.058C29.7933 116.756 31.5222 117.738 33.3491 117.738C33.8698 117.738 34.3973 117.657 34.9179 117.494L76.0016 104.469L70.8853 145.648C70.7003 147.133 71.7291 148.489 73.1818 148.678C74.6345 148.864 75.9602 147.816 76.1452 146.331L81.5667 102.705C83.9626 101.756 85.6971 101.941 86.4483 100.168L90.8313 89.8253C90.8589 89.8225 91.4983 89.7632 91.5839 89.7519C92.5451 90.2728 88.5542 88.1118 98.8821 93.704L108.323 169.692H73.2439L75.0129 155.453C75.1966 153.968 74.1691 152.612 72.7164 152.423C71.2651 152.235 69.9366 153.285 69.7516 154.77L67.8984 169.692H61.3666C59.9015 169.692 58.7153 170.904 58.7153 172.402V182.29C58.7153 183.786 59.9015 185 61.3666 185H120.201C121.665 185 122.852 183.786 122.852 182.29V172.402C122.852 170.904 121.665 169.692 120.201 169.692H113.669L104.613 96.8063L145.749 119.08C148.256 120.437 151.321 119.528 152.732 117.028L154.699 113.547C155.929 111.368 155.526 108.654 153.72 106.945ZM117.549 179.58H64.0166V175.111H117.549V179.58ZM89.9365 67.6248C94.2146 67.6248 97.7995 71.0052 98.1323 75.3694C98.512 80.2078 94.7559 84.435 89.9365 84.435C85.6957 84.435 82.1633 81.0956 81.7545 76.8514C81.7518 76.8373 81.7518 76.8232 81.7504 76.8105C81.2988 71.8958 85.1074 67.6248 89.9365 67.6248ZM33.3989 112.3L31.4932 108.926L76.9282 79.8083C78.1241 84.1019 81.3002 87.5501 85.3822 89.0462L82.0653 96.8726C64.3384 102.492 50.4311 106.901 33.3989 112.3ZM148.173 114.26L98.0259 87.1069C101.183 84.6919 103.264 80.9093 103.452 76.6086L112.673 75.5204L150.078 110.885L148.173 114.26Z" fill="white"/>
<path d="M93.4346 149.423V112.458C93.4346 110.96 92.2484 109.748 90.7832 109.748C89.318 109.748 88.1318 110.96 88.1318 112.458V149.423C88.1318 150.921 89.318 152.133 90.7832 152.133C92.2484 152.133 93.4346 150.921 93.4346 149.423Z" fill="white"/>
<path d="M43.3388 84.4351C44.7874 84.2107 45.783 82.8303 45.5648 81.3497C45.221 79.0307 45.0484 76.6609 45.0484 74.3052C45.0484 65.399 47.5064 56.7385 52.1587 49.2621C56.6895 41.9805 63.0818 36.1244 70.6465 32.3262C71.9612 31.6657 72.5025 30.0425 71.8576 28.6988C71.2113 27.3566 69.6233 26.8019 68.3086 27.461C59.8698 31.6981 52.7387 38.2303 47.6846 46.3531C41.0686 56.9855 38.478 69.6898 40.3215 82.1599C40.5411 83.6433 41.8944 84.6581 43.3388 84.4351Z" fill="white"/>
<path d="M69.6054 40.5379C58.2957 47.9606 51.543 60.5845 51.543 74.3051C51.543 75.183 51.5747 76.0991 51.6355 77.0264C51.7349 78.5267 53.0067 79.6502 54.4581 79.5472C55.9191 79.447 57.0238 78.1555 56.9258 76.6622C56.8733 75.8563 56.8457 75.0631 56.8457 74.3051C56.8457 62.4392 62.687 51.5203 72.4694 45.0983C73.7012 44.2895 74.0589 42.6127 73.2676 41.3537C72.4763 40.0947 70.8372 39.7291 69.6054 40.5379Z" fill="white"/>
<path d="M107.561 30.8159C109.695 31.6783 111.785 32.7171 113.78 33.9027C121.311 38.3812 127.397 44.9077 131.381 52.7793C135.261 60.4434 136.998 69.0362 136.406 77.6277C136.302 79.121 137.403 80.4167 138.864 80.5211C138.927 80.5268 138.99 80.5282 139.053 80.5282C140.433 80.5282 141.597 79.4371 141.695 78.0088C142.356 68.4237 140.417 58.8386 136.091 50.2881C131.643 41.5019 124.85 34.2147 116.446 29.2182C114.224 27.8971 111.892 26.7397 109.514 25.7771C108.152 25.2266 106.611 25.9069 106.073 27.2986C105.533 28.6903 106.2 30.2655 107.561 30.8159Z" fill="white"/>
<path d="M105.812 43.2112C106.52 43.5697 107.205 43.9451 107.846 44.3262C117.881 50.2938 124.176 60.9431 124.687 72.8161C124.751 74.2713 125.923 75.4075 127.335 75.4075C127.373 75.4075 127.413 75.4061 127.453 75.4047C128.916 75.3383 130.05 74.0737 129.986 72.5776C129.395 58.8542 122.115 46.5408 110.512 39.6417C109.769 39.1999 108.981 38.7666 108.165 38.3544C106.853 37.6897 105.262 38.2387 104.612 39.5796C103.963 40.9204 104.5 42.5464 105.812 43.2112Z" fill="white"/>
</svg>
